<?xml version="1.0" encoding="iso-8859-1"?>
<!-- Generator: Adobe Illustrator 19.0.0, SVG Export Plug-In . SVG Version: 6.00 Build 0)  -->
<svg version="1.1" id="Capa_1" xmlns="http://www.w3.org/2000/svg" xmlns:xlink="http://www.w3.org/1999/xlink" x="0px" y="0px"
	 viewBox="0 0 446.871 446.871" style="enable-background:new 0 0 446.871 446.871;" xml:space="preserve">
<path style="fill:#FED14F;" d="M49.835,340.235h346.4v64h-346.4L49.835,340.235z"/>
<path style="fill:#FCB129;" d="M222.635,340.235h172.8v64h-172.8V340.235z"/>
<g>
	<path style="fill:#FED14F;" d="M106.635,338.635l-1.6-5.6c-9.6-28.8-40-124.8-9.6-168.8c10.4-14.4,26.4-22.4,48-22.4
		c4,0,8.8,0,13.6,0.8c21.6,2.4,42.4,11.2,60,24.8l6.4,5.6l-5.6,6.4c-43.2,48-45.6,128-44.8,151.2v8H106.635z"/>
	<path style="fill:#FED14F;" d="M48.235,338.635l-28.8-62.4c-13.6-28.8-15.2-52-4-68.8c13.6-21.6,44-27.2,61.6-28l11.2-0.8
		l-2.4,10.4c-10.4,46.4,8.8,112.8,17.6,138.4l3.2,10.4h-58.4L48.235,338.635z"/>
</g>
<path style="fill:#63CDF8;" d="M192.92,72.935l29.981-29.981l29.981,29.981l-29.981,29.981L192.92,72.935z"/>
<path style="fill:#FCB129;" d="M337.035,346.635l19.2,19.2c3.2,3.2,3.2,8,0,11.2l-19.2,19.2h53.6v-50.4L337.035,346.635z"/>
<g>
	<path style="fill:#63CDF8;" d="M100.409,371.859l22.058-22.065l22.065,22.058l-22.058,22.065L100.409,371.859z"/>
	<path style="fill:#63CDF8;" d="M302.738,371.697l22.058-22.065l22.065,22.058l-22.058,22.065L302.738,371.697z"/>
	<path style="fill:#63CDF8;" d="M202.98,371.503l20.362-20.367l20.367,20.362l-20.362,20.367L202.98,371.503z"/>
</g>
<path style="fill:#FCB129;" d="M273.835,338.635v-8c0.8-16.8,0-101.6-44.8-151.2l-5.6-7.2l6.4-5.6c17.6-13.6,38.4-22.4,60-24.8
	c4.8-0.8,9.6-0.8,13.6-0.8c21.6,0,37.6,7.2,48,22.4c30.4,44,0.8,140.8-9.6,168.8l-1.6,5.6h-66.4V338.635z"/>
<path style="fill:#FED14F;" d="M173.035,338.635h50.4v-164.8C173.835,224.235,172.235,310.635,173.035,338.635z"/>
<g>
	<path style="fill:#FCB129;" d="M223.435,173.835v166.4h53.6C277.835,312.235,276.235,225.035,223.435,173.835z"/>
	<path style="fill:#FCB129;" d="M340.235,338.635l3.2-10.4c8.8-26.4,28-92,17.6-138.4l-1.6-11.2l11.2,0.8c16.8,1.6,47.2,7.2,61.6,28
		c11.2,16.8,9.6,39.2-3.2,68l-29.6,62.4h-59.2V338.635z"/>
</g>
<path d="M364.235,171.435c-1.6-4-4-8-6.4-12c-14.4-20-37.6-28.8-68.8-24.8c-20.8,2.4-40.8,9.6-57.6,21.6v-48.8l28.8-28.8
	c3.2-3.2,3.2-8,0-11.2l-31.2-31.2c-3.2-3.2-8-3.2-11.2,0l-31.2,31.2c-3.2,3.2-3.2,8,0,11.2l28.8,28.8v48.8
	c-16.8-12-36.8-19.2-57.6-21.6c-32-4-55.2,4.8-68.8,24.8c-2.4,4-4.8,8-6.4,12c-15.2,0.8-55.2,4.8-73.6,32c-12.8,19.2-12,44.8,2.4,76
	l28.8,60.8v64.8c0,4.8,3.2,8,8,8h350.4c4.8,0,8-3.2,8-8v-64l28.8-60.8c14.4-31.2,15.2-56.8,2.4-76
	C419.435,175.435,379.435,171.435,364.235,171.435L364.235,171.435z M290.635,150.635c25.6-3.2,43.2,2.4,53.6,17.6
	c28.8,41.6-2.4,138.4-10.4,162.4h-52c0-26.4-2.4-107.2-47.2-156.8C250.635,160.235,270.635,152.235,290.635,150.635L290.635,150.635
	z M203.435,73.035l20-20l20,20l-20,19.2L203.435,73.035z M223.435,184.235c42.4,45.6,43.2,122.4,42.4,146.4h-85.6
	C180.235,305.835,181.035,229.835,223.435,184.235z M101.835,168.235c10.4-15.2,28-20.8,53.6-17.6c20.8,2.4,40,10.4,56,23.2
	c-44.8,49.6-48,130.4-47.2,156.8h-52C104.235,306.635,73.035,209.835,101.835,168.235L101.835,168.235z M25.835,272.235
	c-12-25.6-13.6-46.4-4-60c12-18.4,40-23.2,55.2-24.8c-10.4,48.8,9.6,116.8,18.4,143.2h-42.4L25.835,272.235z M56.235,396.235v-50.4
	h53.6l-19.2,19.2c-3.2,3.2-3.2,8,0,11.2l19.2,19.2L56.235,396.235z M107.435,371.435l15.2-14.4l15.2,14.4l-15.2,14.4
	L107.435,371.435z M134.635,396.235l19.2-19.2c3.2-3.2,3.2-8,0-11.2l-19.2-19.2h76.8l-20,19.2c-3.2,3.2-3.2,8,0,11.2l19.2,19.2
	H134.635z M208.235,371.435l15.2-14.4l14.4,14.4l-14.4,15.2L208.235,371.435z M235.435,396.235l20-19.2c3.2-3.2,3.2-8,0-11.2
	l-19.2-19.2h76.8l-19.2,19.2c-3.2,3.2-3.2,8,0,11.2l19.2,19.2H235.435z M309.835,371.435l14.4-14.4l14.4,14.4l-14.4,14.4
	L309.835,371.435z M390.635,396.235h-53.6l19.2-19.2c3.2-3.2,3.2-8,0-11.2l-19.2-19.2h53.6V396.235z M420.235,272.235l-27.2,57.6
	h-41.6c8.8-26.4,28.8-94.4,18.4-143.2c15.2,1.6,43.2,6.4,55.2,24.8C433.835,225.835,432.235,246.635,420.235,272.235z"/>
<g>
</g>
<g>
</g>
<g>
</g>
<g>
</g>
<g>
</g>
<g>
</g>
<g>
</g>
<g>
</g>
<g>
</g>
<g>
</g>
<g>
</g>
<g>
</g>
<g>
</g>
<g>
</g>
<g>
</g>
</svg>
