<svg id="Capa_1" enable-background="new 0 0 501 501" height="512" viewBox="0 0 501 501" width="512" xmlns="http://www.w3.org/2000/svg"><g><path d="m495.472 259.75c-2.005 133.642-111.014 241.348-245.156 241.25-135.073-.099-245.188-110.619-244.815-245.692.196-70.989 30.584-134.877 78.999-179.501h27.624c34.004 0 63.734-22.926 72.376-55.814 21.085-5.884 43.316-9.019 66.284-8.993 136.205.155 246.731 112.56 244.688 248.75z" fill="#70bdc8"/><path d="m494.607 277.061c-10.685 125.51-115.992 224.033-244.291 223.939-127.745-.094-233.167-98.953-243.914-223.939z" fill="#4cacba"/><path d="m261.415 238.226-2.81-55.023c-.24-4.699 5.552-7.098 8.705-3.606l36.92 40.894c1.985 2.199 5.437 2.199 7.423 0l36.92-40.894c3.153-3.492 8.945-1.093 8.705 3.606l-2.81 55.023c-.151 2.959 2.29 5.4 5.249 5.249l55.023-2.81c4.699-.24 7.098 5.552 3.606 8.705l-40.894 36.92c-2.199 1.985-2.199 5.437 0 7.423l40.894 36.92c3.492 3.153 1.093 8.945-3.606 8.705l-55.023-2.81c-2.959-.151-5.4 2.29-5.249 5.249l2.81 55.023c.24 4.699-5.552 7.098-8.705 3.606l-36.92-40.894c-1.985-2.199-5.437-2.199-7.423 0l-36.92 40.894c-3.153 3.492-8.945 1.093-8.705-3.606l2.81-55.023c.151-2.959-2.289-5.4-5.249-5.249l-55.023 2.81c-4.699.24-7.098-5.552-3.606-8.705l40.894-36.92c2.199-1.985 2.199-5.437 0-7.423l-40.894-36.92c-3.492-3.153-1.093-8.945 3.606-8.705l55.023 2.81c2.96.151 5.4-2.29 5.249-5.249z" fill="#fff79f"/><path d="m306.734 176.929c4.338-.242 8.507.35 12.362 1.63v-105.657c0-7.034 7.069-11.869 13.624-9.32l113.087 43.978c5.766 2.242 9.563 7.794 9.563 13.98v132.86c0 20.662-16.892 38.418-37.553 38.579-21.528.167-38.94-17.638-38.128-39.308.747-19.927 17.25-36.065 37.188-36.394 5.617-.093 10.96 1.039 15.78 3.145v-95.262l-90.85-35.331v119.497c0 18.351-15.011 33.998-33.362 33.895-18.65-.104-33.655-15.599-32.96-34.428.627-16.963 14.302-30.918 31.249-31.864z" fill="#644189"/><path d="m455.371 222.436v31.964c0 20.662-16.892 38.418-37.553 38.579-21.528.167-38.94-17.638-38.127-39.308.193-5.15 1.438-10.046 3.523-14.482 6.075 12.98 19.299 21.945 34.604 21.826 20.661-.161 37.553-17.918 37.553-38.579zm-146.924-11.18c-12.431-.069-23.242-6.977-28.865-17.151-2.437 4.401-3.901 9.398-4.096 14.687-.695 18.829 14.31 34.324 32.96 34.428 18.351.102 33.362-15.544 33.362-33.895v-31.964c.001 18.351-15.01 33.998-33.361 33.895z" fill="#533672"/><path d="m184.5 19.993v290.007h-100v-234.193c28.066-25.868 62.189-45.262 100-55.814z" fill="#f2d1a5"/><path d="m116.993 310h-32.493v-234.193c10.085-9.296 20.953-17.755 32.492-25.269v259.462z" fill="#f2bb88"/><path d="m184.5 370h-100v-160h100z" fill="#754ca0"/><path d="m124.5 370h-40v-160h40z" fill="#644189"/><path d="m194.5 220h-120c-5.523 0-10-4.477-10-10 0-5.523 4.477-10 10-10h120c5.523 0 10 4.477 10 10 0 5.523-4.477 10-10 10z" fill="#754ca0"/><path d="m194.5 220h-70c-5.523 0-10-4.477-10-10 0-5.523 4.477-10 10-10h70c5.523 0 10 4.477 10 10 0 5.523-4.477 10-10 10z" fill="#865cb2"/><path d="m401.488 433.911-338.815-28.359 12.166-145.35c.651-7.783 7.489-13.565 15.272-12.913 3.738.313 7.198 2.098 9.62 4.962 8.983 10.624 22.882 15.757 36.615 13.52l46.445-7.565c8.322-1.356 16.86-.02 24.371 3.812l104.238 53.189c12.583 6.421 25.865 11.368 39.582 14.743 33.418 8.223 55.901 39.517 53.031 73.811z" fill="#f76c57"/><path d="m124.536 265.911-12.037 143.811-49.826-4.17 12.166-145.35c.651-7.783 7.489-13.565 15.272-12.913 3.737.313 7.198 2.098 9.619 4.962 6.391 7.558 15.269 12.337 24.806 13.66z" fill="#e5554e"/><path d="m402.836 383.849-160.464-13.431c-24.634-2.062-42.117-24.92-37.658-49.235l10.132-55.244 96.552 49.267c12.583 6.421 25.865 11.368 39.582 14.743 26.785 6.591 46.545 28.002 51.856 53.9z" fill="#f87b67"/><path d="m113.51 439.912-53.34-4.465c-5.504-.461-9.592-5.296-9.131-10.799l1.668-19.93c.461-5.504 5.296-9.592 10.799-9.131l53.34 4.465c5.504.461 9.592 5.296 9.131 10.799l-1.668 19.93c-.46 5.504-5.295 9.592-10.799 9.131z" fill="#533672"/><path d="m399.982 463.89-289.986-24.272c-5.504-.461-9.592-5.296-9.131-10.799l1.668-19.93c.461-5.504 5.296-9.592 10.799-9.131l289.986 24.272c5.504.461 9.592 5.296 9.131 10.799l-1.668 19.93c-.46 5.504-5.295 9.592-10.799 9.131z" fill="#644189"/><path d="m207.161 262.018 9.248 4.719-15.095 34.704c-2.203 5.064-8.095 7.384-13.159 5.181-5.065-2.203-7.384-8.094-5.181-13.159l15.116-34.752c3.128.724 6.176 1.83 9.071 3.307zm104.238 53.189-5.747-2.933-12.638 29.054c-2.203 5.065.117 10.956 5.181 13.159s10.956-.117 13.159-5.181l12.347-28.385c-4.167-1.751-8.271-3.657-12.302-5.714zm-55.066 10.166c-2.203 5.064.117 10.956 5.181 13.159s10.956-.117 13.159-5.181l13.129-30.184-17.848-9.107zm-36.68-15.955c-2.203 5.065.117 10.956 5.181 13.159 5.065 2.203 10.956-.117 13.159-5.181l14.112-32.444-17.849-9.107z" fill="#754ca0"/><path d="m234.812 89.252c4.394-.392 8.579.355 12.294 1.978v-86.229c0-3.072 2.745-5.418 5.78-4.939l32.967 5.205c3.601.569 6.253 3.672 6.253 7.318 0 4.552-4.067 8.028-8.564 7.318l-21.436-3.385v97.055c0 13.361-10.904 25.18-24.259 25.566-14.836.429-26.867-12.072-25.657-27.066.969-12.003 10.628-21.752 22.622-22.821z" fill="#f9f1d2"/><path d="m214.19 104.159c3.953 9.037 13.093 15.286 23.656 14.98 13.355-.386 24.259-12.206 24.259-25.566v20c0 13.361-10.904 25.18-24.259 25.566-14.836.429-26.867-12.072-25.657-27.066.226-2.787.919-5.451 2.001-7.914z" fill="#f5e8b4"/></g></svg>