<?xml version="1.0" encoding="iso-8859-1"?>
<!-- Generator: Adobe Illustrator 21.0.0, SVG Export Plug-In . SVG Version: 6.00 Build 0)  -->
<svg xmlns="http://www.w3.org/2000/svg" xmlns:xlink="http://www.w3.org/1999/xlink" version="1.1" id="Capa_1" x="0px" y="0px" viewBox="0 0 512 512" style="enable-background:new 0 0 512 512;" xml:space="preserve" width="512" height="512">
<g>
	<path style="fill:#6393E4;" d="M256,22C120.69,22,11,131.69,11,267c0,89.251,47.731,167.346,119.053,210.177l71.807,28.808   C219.278,509.914,237.395,512,256,512c1.984,0,3.962-0.028,5.934-0.075l62.495-9.623C426.435,472.687,501,378.557,501,267   C501,131.69,391.31,22,256,22z"/>
	<path style="fill:#474979;" d="M362.439,383.267l-80.756-63.252c-2.279,4.9-6.416,8.918-11.759,10.955   c-18.274,6.966-48.473,14.355-79.401,4.108c-4.954-1.641-8.89-4.926-11.437-9.038l-43.445,86.223   c-9.689,19.23-13.202,40.886-10.234,62.05c24.653,15.562,52.268,26.854,81.817,32.824l-11.379-53.103   c-0.461-2.154-0.157-4.402,0.862-6.355l36.139-69.313c2.213-4.245,7.769-5.381,11.471-2.347l47.854,38.582   c3.782,3.1,4.579,8.571,1.837,12.62l-38.975,84.766c0.323,0.001,0.644,0.012,0.968,0.012c26.161,0,51.356-4.116,74.994-11.709   l40.445-59.937C383.884,421.912,379.955,396.986,362.439,383.267z"/>
	<path style="fill:#FF0435;" d="M274.967,315.314c-19.732,7.523-52.342,15.501-85.738,4.436c-5.551-1.839-9.926-5.59-12.667-10.269   c-2.822,10.808,3.222,22.039,13.961,25.596c30.927,10.247,61.127,2.858,79.401-4.108c8.849-3.374,14.427-12.164,13.65-21.438   C281.232,312.024,278.323,314.035,274.967,315.314z"/>
	<path style="fill:#383C6B;" d="M281.683,320.015c-2.279,4.9-6.416,8.918-11.759,10.955c-18.274,6.966-48.473,14.355-79.401,4.108   c-4.954-1.641-8.89-4.926-11.437-9.038l-43.445,86.223c-9.689,19.23-13.202,40.886-10.234,62.05   c24.653,15.562,52.268,26.854,81.817,32.824l-11.379-53.103c-0.461-2.154-0.157-4.402,0.862-6.355l36.139-69.313   c2.213-4.245,7.769-5.381,11.471-2.347l23.417,18.88c-14.382-28.91,13.506-61.558,44.656-50.833L281.683,320.015z"/>
	<path style="fill:#FF0435;" d="M274.967,317.314c-19.732,7.523-52.342,15.501-85.738,4.436c-5.551-1.839-9.926-5.59-12.667-10.269   c-2.822,10.808,3.222,22.039,13.961,25.596c30.927,10.247,61.127,2.858,79.401-4.108c8.849-3.374,14.427-12.164,13.65-21.438   C281.232,314.024,278.323,316.035,274.967,317.314z"/>
	<path style="fill:#C1001A;" d="M214.487,334.145c0-2.875,1.34-5.435,3.425-7.099c-9.296-0.473-18.955-2.072-28.684-5.295   c-5.551-1.839-9.926-5.59-12.667-10.269c-2.822,10.808,3.222,22.039,13.961,25.596c9.729,3.223,19.385,4.699,28.621,4.995   C216.367,340.52,214.487,337.553,214.487,334.145z"/>
	<path style="fill:#FF738D;" d="M274.919,162.767l-23.214-6.065c-22.977-6.004-36.864-29.715-30.861-52.692l18.748-71.751   c6.004-22.977,29.715-36.864,52.692-30.861l23.214,6.065c22.977,6.004,36.864,29.715,30.861,52.692l-18.748,71.751   C321.608,154.884,297.896,168.771,274.919,162.767z"/>
	<path style="fill:#FF3C63;" d="M251.467,119.082l22.206-84.988c4.942-18.915,24.143-30.5,43.077-26.268   c-0.417-0.122-0.83-0.251-1.252-0.362l-23.214-6.065c-22.977-6.004-46.688,7.884-52.692,30.86l-18.748,71.751   c-6.004,22.977,7.884,46.688,30.861,52.692l23.214,6.065c0.422,0.11,0.845,0.2,1.268,0.297   C257.604,157.493,246.525,137.996,251.467,119.082z"/>
	<polygon style="fill:#FF3C63;" points="327.611,131.909 327.611,131.907 346.359,60.156 346.359,60.154  "/>
	<path style="fill:#FF0435;" d="M272.695,162.186l-18.766-4.903c-18.575-4.853-29.801-24.022-24.948-42.596l15.156-58.003   c4.853-18.575,24.022-29.801,42.596-24.948l18.766,4.903c18.575,4.853,29.801,24.022,24.948,42.596l-15.156,58.003   C310.438,155.813,291.27,167.04,272.695,162.186z"/>
	<path style="fill:#C1001A;" d="M305.499,36.639l-18.766-4.903c-1.163-0.304-2.329-0.545-3.493-0.725   c13.134,5.062,20.723,19.395,17.085,33.318l-18.598,71.175c-3.638,13.923-17.268,22.712-31.2,20.701   c1.104,0.413,2.238,0.773,3.401,1.077l18.766,4.903c18.575,4.854,37.743-6.373,42.596-24.948l15.156-58.003   C335.301,60.661,324.074,41.492,305.499,36.639z"/>
	<path style="fill:#F9BD91;" d="M427.209,270.316c-6.469,0-12.684-3.613-15.704-9.821c-4.214-8.665-0.606-19.107,8.061-23.323   l17.839-8.676c8.66-4.209,19.107-0.606,23.323,8.06c4.215,8.665,0.606,19.107-8.06,23.323l-17.839,8.677   C432.371,269.749,429.77,270.316,427.209,270.316z"/>
	<path style="fill:#F9BD91;" d="M444.563,250.533c-1.287-9.55-10.064-16.272-19.622-14.962l-15.831,2.133l4.944,34.546l15.547-2.095   C439.152,268.87,445.85,260.083,444.563,250.533z"/>
	<path style="fill:#F9BD91;" d="M143.958,129.907c-2.634,0-5.309-0.598-7.823-1.863c-8.609-4.328-12.081-14.817-7.752-23.427   l8.91-17.724c4.326-8.609,14.813-12.086,23.427-7.752c8.609,4.328,12.081,14.817,7.752,23.427l-8.91,17.724   C156.498,126.387,150.345,129.907,143.958,129.907z"/>
	<path style="fill:#F9BD91;" d="M158.888,130.772l2.346-15.836c1.413-9.532-5.171-18.406-14.703-19.818   c-9.539-1.414-18.407,5.171-19.818,14.703l-2.277,15.371L158.888,130.772z"/>
	<path style="fill:#F9BD91;" d="M254.909,126.771l-8.809,44.079l32.6,6.515l8.536-42.713   C276.717,139.673,263.47,137.445,254.909,126.771z"/>
	<path style="fill:#EAA77A;" d="M269.548,136.386c-5.408-1.379-10.558-4.527-14.639-9.616l-8.809,44.079l20.918,4.181   C262.207,162.201,266.129,146.189,269.548,136.386z"/>
	<polygon style="fill:#474979;" points="246.186,67.055 246.186,67.055 246.186,67.056  "/>
	<polygon style="fill:#474979;" points="246.18,67.037 246.18,67.037 246.18,67.037  "/>
	<path style="fill:#474979;" d="M286.272,14.716c-23.518-1.399-28.258,11.156-29.208,15.918c-0.199,0.999-0.935,1.815-1.92,2.075   c-13.057,3.444-12.146,32.643-12.146,32.643c1.181,0.316,2.337,1.048,3.182,1.684c0.51-1.378,1.16-2.706,1.954-3.956   c0.605-0.953,1.313-1.896,2.136-2.758c1.427-1.494,2.321-3.413,2.571-5.458c0.722-5.912,3.194-17.353,11.568-19.296   c7.095-1.646,14.753,1.629,19.515,4.33c3.093,1.754,6.679,2.462,10.206,2.014c5.432-0.689,13.76-0.81,19.697,3.408   c6.988,4.965,4.419,16.329,2.843,22.088c-0.548,2.002-0.467,4.135,0.291,6.074c0.448,1.145,1.184,2.973,1.382,4.118   c0.246,1.424,0.337,2.862,0.286,4.295c1.29-0.338,3.202-1.169,4.601-0.681c1.382-6.073,3.245-12.545,3.245-12.545   C339.822,36.769,311.595,16.223,286.272,14.716z"/>
	<path style="fill:#3B3F6D;" d="M278.013,22.222c1.643-3.611,4.591-6.217,8.031-7.516c-23.317-1.303-28.033,11.182-28.98,15.928   c-0.2,0.999-0.936,1.815-1.92,2.075c-13.057,3.444-12.146,32.643-12.146,32.643c1.181,0.316,2.337,1.048,3.182,1.684   c0.51-1.378,1.16-2.706,1.954-3.956c0.605-0.953,1.313-1.896,2.136-2.758c1.427-1.494,2.321-3.413,2.571-5.458   c0.722-5.912,3.194-17.353,11.568-19.296c5.737-1.331,11.841,0.556,16.485,2.755C276.81,34.194,275.464,27.824,278.013,22.222z"/>
	<path style="fill:#F9BD91;" d="M325.613,82.51c-1.492-1.993-5.271-1.878-7.032-1.185c-0.071,2.163-0.475,4.312-1.189,6.371   l-4.451,12.84c-0.21,1.064-0.45,2.102-0.715,3.116c4.235,2.221,7.252-1.307,8.166-3.956c0.393-1.14,0.886-2.244,1.476-3.299   C323.791,92.96,329.352,87.503,325.613,82.51z"/>
	<path style="fill:#EAA77A;" d="M321.869,96.396c0.661-1.182,1.75-2.606,2.746-4.165c-1.826,1.318-4.285,1.651-6.482,0.652   c-0.791-0.36-1.472-0.861-2.033-1.457l-3.158,9.11c-0.21,1.064-0.45,2.102-0.715,3.116c4.235,2.221,7.252-1.307,8.166-3.956   C320.786,98.555,321.279,97.451,321.869,96.396z"/>
	<path style="fill:#F9BD91;" d="M239.286,65.474c2.137-1.276,5.589,0.266,6.955,1.575c-0.756,2.028-1.199,4.169-1.321,6.345   l-0.761,13.568c-0.21,1.064-0.382,2.115-0.522,3.154c-4.761,0.446-6.212-3.964-6.051-6.762c0.069-1.204,0.033-2.412-0.112-3.612   C237.002,75.832,233.93,68.672,239.286,65.474z"/>
	<path style="fill:#FCD2AE;" d="M318.477,76.91c-0.199-1.148-0.501-2.33-0.949-3.477c-0.76-1.943-0.841-4.08-0.291-6.087   c1.58-5.771,3.612-17.268-3.391-22.244c-5.95-4.227-14.296-4.106-19.74-3.416c-3.535,0.449-7.131-0.261-10.23-2.019   c-4.773-2.707-12.447-5.989-19.557-4.339c-8.392,1.947-10.87,13.414-11.594,19.339c-0.25,2.049-1.146,3.972-2.576,5.47   c-0.824,0.863-1.534,1.809-2.14,2.764c-1.968,3.097-3.067,6.661-3.281,10.321l-0.795,13.595   c-3.755,19.029,3.85,33.968,11.166,42.383c3.819,4.393,9.009,7.393,14.741,8.524c5.732,1.131,11.673,0.327,16.874-2.285   c9.965-5.005,22.675-15.934,26.43-34.963l4.429-12.875C318.752,84.166,319.096,80.491,318.477,76.91z"/>
	<path style="fill:#F9BD91;" d="M267.879,131.72c-5.21-7.999-10.339-22.449-6.584-41.479l1.238-13.508   c0.333-3.636,1.339-7.218,2.989-10.378c0.509-0.974,1.096-1.944,1.766-2.837c1.164-1.55,1.939-3.497,2.225-5.539   c0.828-5.904,3.255-17.38,9.769-19.699c0.405-0.144,0.81-0.255,1.216-0.348c-4.611-2.135-10.569-3.907-16.181-2.605   c-8.392,1.947-10.87,13.414-11.594,19.338c-0.25,2.049-1.146,3.972-2.576,5.47c-0.824,0.863-1.534,1.809-2.14,2.764   c-1.968,3.097-3.067,6.661-3.281,10.321l-0.795,13.595c-3.755,19.029,3.85,33.968,11.166,42.383   c3.819,4.393,9.009,7.393,14.741,8.524c1.719,0.339,3.456,0.483,5.188,0.478C272.24,136.84,269.783,134.644,267.879,131.72z"/>
	<path style="fill:#EAA77A;" d="M244.159,86.962l0.54-9.631c-1.73,0.949-3.867,1.105-5.801,0.225   c-0.856-0.39-1.583-0.945-2.168-1.608c0.292,1.408,0.615,2.724,0.744,3.793c0.145,1.2,0.182,2.408,0.113,3.612   c-0.161,2.798,1.29,7.208,6.051,6.762C243.777,89.077,243.949,88.026,244.159,86.962z"/>
	<path style="fill:#FF3C63;" d="M409.743,236.863h-45.307c-4.082,0-7.813-2.312-9.63-5.968l-23.561-47.402   c-6.586-13.25-17.863-23.579-31.64-28.979l-10.095-3.956c-1.176-0.461-2.516-0.125-3.335,0.836l-16.55,19.413   c-4.979,5.84-14.506,3.27-15.873-4.281l-4.256-23.513c-0.224-1.237-1.205-2.199-2.447-2.398l-18.462-2.959   c-12.742-2.042-25.803,0.104-37.221,6.116l-34.249,18.034l1.9-31.9l-34.452-5.58l-10.927,49.338   c-5.361,24.205,17.193,45.297,40.985,38.328l46.651-13.663c3.264-0.956,6.268,2.131,5.222,5.368l-31.998,91.072   c-3.893,12.05,2.711,24.937,14.732,28.92c33.396,11.065,66.006,3.086,85.738-4.436c10.229-3.899,16.417-14.502,14.462-25.273   c-5.065-27.913,0.207-47.287,4.232-62.478c0.911-3.438,5.634-3.812,7.074-0.56l14.618,33.006   c6.711,15.152,22.938,23.726,39.237,20.731l60.407-11.1L409.743,236.863z"/>
	<path style="fill:#FF0435;" d="M154.622,211.993l46.651-13.663c3.264-0.956,6.268,2.131,5.222,5.368l-31.998,91.072   c-3.893,12.05,2.711,24.937,14.732,28.92c9.155,3.033,18.249,4.628,27.037,5.201c-19.023-36.918,16.173-113.661,39.828-157.705   c-1.155-1.21-2.002-2.779-2.343-4.659l-4.256-23.513c-0.224-1.237-1.205-2.198-2.447-2.397l-18.462-2.959   c-12.742-2.042-25.803,0.104-37.221,6.116l-34.249,18.034l1.9-31.9l-34.452-5.58l-10.927,49.337   C108.276,197.87,130.829,218.961,154.622,211.993z"/>
	
		<ellipse transform="matrix(0.866 -0.5 0.5 0.866 -80.6562 153.7286)" style="fill:#FF0435;" cx="246.533" cy="227.371" rx="34.455" ry="34.455"/>
	<path style="fill:#C1001A;" d="M238.636,231.93c-7.277-12.604-5.677-27.89,2.848-38.641c-4.173,0.617-8.303,2.006-12.178,4.243   c-16.479,9.514-22.126,30.587-12.611,47.066c9.514,16.479,30.587,22.126,47.066,12.611c3.875-2.237,7.143-5.12,9.764-8.425   C259.951,250.79,245.913,244.534,238.636,231.93z"/>
	<path style="fill:#E2E9F2;" d="M288.547,160.581h-4.945c0,0-13.977,27.68-13.977,55.339l6.989-0.001   C276.613,215.919,273.907,195.947,288.547,160.581z"/>
	<circle style="fill:#FF738D;" cx="273.182" cy="218.338" r="6.533"/>
	<path style="fill:#E2E9F2;" d="M245.113,151.631h-4.945c0,0-13.977,27.68-13.977,55.339l6.989-0.001   C233.179,206.968,230.473,186.997,245.113,151.631z"/>
	<circle style="fill:#FF738D;" cx="229.748" cy="209.387" r="6.533"/>
	<path style="fill:#FFA6B7;" d="M415.007,232.926l-4.579,0.875c-2.717,0.519-4.514,3.167-3.995,5.883l5.935,31.053   c0.519,2.717,3.167,4.514,5.884,3.995l4.579-0.875c2.717-0.519,4.514-3.167,3.995-5.883l-5.935-31.053   C420.371,234.205,417.724,232.407,415.007,232.926z"/>
	<path style="fill:#FFA6B7;" d="M122.736,121.781l-0.747,4.601c-0.443,2.73,1.428,5.326,4.159,5.769l31.207,5.063   c2.73,0.443,5.326-1.428,5.769-4.158l0.747-4.602c0.443-2.73-1.428-5.326-4.158-5.769l-31.207-5.063   C125.775,117.179,123.179,119.05,122.736,121.781z"/>
	<path style="fill:#B2C7D8;" d="M255.306,36.794c2.581-13.288,8.585-24.631,15.66-30.259l-2.352,0.284   c-11.635,1.404-21.035,10.153-23.27,21.657l-4.094,21.079l1.138,0.996c3.631,0.665,7.017,1.013,10.019,1.17L255.306,36.794z"/>
	<path style="fill:#C7D6E5;" d="M320.359,16.869l-2.071-1.141c4.453,7.867,5.774,20.632,3.193,33.919l-2.926,15.067   c4.418,1.459,7.931,2.181,9.746,2.527l1.434-0.5l4.094-21.079C336.065,34.158,330.623,22.526,320.359,16.869z"/>
	<path style="fill:#E2E9F2;" d="M322.374,49.032c2.379-12.251,1.512-24.063-2.02-32.166L303.73,7.704   c-4.957-2.732-10.647-3.837-16.267-3.16l-18.84,2.273c-6.308,6.191-11.535,16.82-13.915,29.072l-3.066,15.787   c7.999,0.497,13.467-0.375,13.928-0.371c14.123-1.413,28.345,1.438,40.832,8.186l0,0c4.666,2.521,9.131,4.26,12.881,5.458   L322.374,49.032z"/>
	<path style="fill:#C7D6E5;" d="M287.464,4.544l-18.84,2.273c-6.308,6.191-11.535,16.82-13.915,29.072l-3.066,15.787   c7.999,0.497,13.467-0.375,13.928-0.371c0.938-0.094,1.876-0.166,2.814-0.222l2.347-12.082c1.079-5.555,2.595-10.805,4.409-15.483   c3.276-8.447,10.685-14.602,19.549-16.472l2.712-0.572c0.973-0.205,1.945-0.309,2.909-0.341   C296.235,4.581,291.83,4.018,287.464,4.544z"/>
	<path style="fill:#474979;" d="M329.736,66.741c-0.948-0.253-11.445-1.654-23.188-8l0,0c-12.487-6.748-26.709-9.599-40.832-8.186   l-1.786,0.179c-12.047,1.205-22.355-1.139-22.68-1.179l0,0c-3.841,7.898,2.425,17.096,11.205,16.902   c1.984-0.044,4.075-0.161,6.246-0.378l1.961-0.196c15.504-1.551,31.117,1.579,44.825,8.986l0,0c2.609,1.41,5.151,2.595,7.553,3.591   C321.153,81.825,330.342,75.505,329.736,66.741L329.736,66.741z"/>
	<path style="fill:#FF738D;" d="M307.47,158.292c-2.514-1.439-5.138-2.709-7.865-3.777l-10.095-3.956   c-1.176-0.461-2.516-0.125-3.335,0.836l-16.55,19.413L307.47,158.292z"/>
	<path style="fill:#FF738D;" d="M253.751,166.527l-4.256-23.513c-0.224-1.237-1.205-2.199-2.446-2.398l-18.462-2.959   c-0.945-0.151-1.892-0.272-2.84-0.378L253.751,166.527z"/>
	<path style="fill:#FF738D;" d="M139.175,128.187c0-3.733,2.494-6.879,5.906-7.876l-16.575-2.689   c-2.73-0.443-5.326,1.428-5.769,4.158l-0.747,4.601c-0.443,2.73,1.428,5.326,4.159,5.769l16.402,2.661   C140.507,133.319,139.175,130.912,139.175,128.187z"/>
	<path style="fill:#FF738D;" d="M426.826,267.974l-3.035-15.878c-1.079,3.274-4.158,5.64-7.794,5.64   c-2.832,0-5.329-1.435-6.805-3.617l3.176,16.618c0.519,2.717,3.167,4.514,5.884,3.995l4.579-0.875   C425.548,273.338,427.345,270.691,426.826,267.974z"/>
</g>















</svg>
