<svg id="Capa_1" enable-background="new 0 0 512 512" height="512" viewBox="0 0 512 512" width="512" xmlns="http://www.w3.org/2000/svg"><g><g><path d="m162.918 394.918-22.2-22.2c-20.629-20.629-32.218-48.608-32.218-77.782v-65.436h295v65.436c0 29.174-11.589 57.153-32.218 77.782l-22.2 22.2-93.082 53.582z" fill="#ffc269"/><path d="m403.5 229.5v65.44c0 29.17-11.59 57.15-32.22 77.78l-22.2 22.2-93.08 53.58-15-8.63 78.08-44.95 22.2-22.2c20.63-20.63 32.22-48.61 32.22-77.78v-65.44z" fill="#ffa95f"/><g fill="#bc845e"><path d="m353.5 198.5h36.5c16.845 0 30.5 13.655 30.5 30.5 0 16.845-13.655 30.5-30.5 30.5h-36.5z"/><path d="m158.5 198.5h-36.5c-16.845 0-30.5 13.655-30.5 30.5 0 16.845 13.655 30.5 30.5 30.5h36.5z"/><path d="m199.369 392.5h8.131c2.761 0 5-2.239 5-5v-55h87v55c0 2.761 2.239 5 5 5h16.685l-55.548 56.457h-22.013z"/></g><path d="m373.5 148.5v91.5c0 64.893-52.607 117.5-117.5 117.5-64.893 0-117.5-52.607-117.5-117.5v-91.5z" fill="#d19a6e"/><path d="m168.5 168.49v10.01c0 11.05-8.95 20-20 20h-26.5c-4.85 0-9.43 1.13-13.5 3.15v-33.15h30z" fill="#ffc269"/><path d="m373.5 148.5v91.5c0 64.89-52.61 117.5-117.5 117.5-5.08 0-10.09-.32-15-.95 57.81-7.37 102.5-56.74 102.5-116.55v-91.5z" fill="#bc845e"/><path d="m403.5 168.5v33.15c-4.07-2.02-8.65-3.15-13.5-3.15h-26.5c-11.05 0-20-8.95-20-20v-10.01l30 .01z" fill="#ffa95f"/><path d="m97.5 504.5c-11.046 0-20-8.954-20-20v-12c0-44.183 35.817-80 80-80h45l38.572 43.259c7.953 8.919 21.902 8.919 29.855 0l38.573-43.259h45c44.183 0 80 35.817 80 80v12c0 11.046-8.954 20-20 20z" fill="#ccf49f"/><path d="m410.69 415.56-16.27 18.05c-9.94-17.85-26.52-31.49-46.4-37.59l3.21-3.52h3.27c21.9 0 41.74 8.81 56.19 23.06z" fill="#b3e59f"/><path d="m351.23 392.5-58.26 63.98c-19.83 21.78-54.11 21.78-73.94 0l-58.26-63.98h41.73l38.57 43.26c7.96 8.92 21.9 8.92 29.86 0l38.57-43.26z" fill="#fff"/><path d="m351.23 392.5-3.21 3.52c-7.44-2.29-15.33-3.52-23.52-3.52z" fill="#f4f4f4"/><path d="m473 216c-4.143 0-7.5-3.357-7.5-7.5v-86.771c0-4.143 3.357-7.5 7.5-7.5s7.5 3.357 7.5 7.5v86.771c0 4.143-3.357 7.5-7.5 7.5z" fill="#fcf1f2"/><path d="m413.546 147.722 80.474-25.855c6.245-2.006 10.48-7.815 10.48-14.374 0-6.058-3.621-11.53-9.198-13.898l-176.577-74.963c-17.304-7.346-35.91-11.132-54.709-11.132h-16.032c-18.799 0-37.405 3.786-54.709 11.132l-176.577 74.963c-5.577 2.367-9.198 7.839-9.198 13.898v.014c0 6.553 4.227 12.357 10.463 14.369l77.975 25.153z" fill="#6f6571"/><path d="m504.5 107.49c0 6.56-4.23 12.37-10.48 14.38l-80.47 25.85-29.8-.06 80.27-25.79c6.25-2.01 10.48-7.82 10.48-14.38 0-3.03-.9-5.91-2.51-8.33-1.6-2.42-3.9-4.38-6.69-5.56l-176.57-74.97c-15.16-6.43-31.33-10.14-47.73-10.95 2.32-.12 4.65-.18 6.98-.18h16.04c18.79 0 37.4 3.79 54.71 11.13l176.57 74.97c2.79 1.18 5.09 3.14 6.69 5.56 1.61 2.42 2.51 5.3 2.51 8.33z" fill="#5d5360"/><path d="m99 168.5h108.977c6.812 0 13.421 2.318 18.741 6.574l19.912 15.93c5.478 4.383 13.263 4.383 18.741 0l19.912-15.93c5.319-4.256 11.929-6.574 18.741-6.574h108.976c2.761 0 5-2.239 5-5v-18.097c0-4.185-2.61-7.925-6.532-9.386-103.645-38.588-207.291-38.588-310.936 0-3.922 1.46-6.532 5.2-6.532 9.386v18.097c0 2.761 2.239 5 5 5z" fill="#5d5360"/><path d="m418 145.4v18.1c0 2.76-2.24 5-5 5h-30c2.76 0 5-2.24 5-5v-18.1c0-4.18-2.61-7.92-6.53-9.38-46.83-17.44-93.65-26.99-140.47-28.67 56.82-2.04 113.64 7.51 170.47 28.67 3.92 1.46 6.53 5.2 6.53 9.38z" fill="#514a54"/><path d="m473 259.5c-12.426 0-22.5-26.074-22.5-38.5 0-12.426 10.074-22.5 22.5-22.5 12.426 0 22.5 10.074 22.5 22.5 0 12.426-10.074 38.5-22.5 38.5z" fill="#cdf2f9"/><path d="m316.5 258.5h-20c-12.15 0-22-9.85-22-22 0-12.15 9.85-22 22-22h20c12.15 0 22 9.85 22 22 0 12.15-9.85 22-22 22z" fill="#e6fcff"/><path d="m215.5 258.5h-20c-12.15 0-22-9.85-22-22 0-12.15 9.85-22 22-22h20c12.15 0 22 9.85 22 22 0 12.15-9.85 22-22 22z" fill="#e6fcff"/><path d="m434.5 472.5v12c0 11.05-8.95 20-20 20h-84l80.19-88.94c14.7 14.5 23.81 34.66 23.81 56.94z" fill="#c3aff0"/><path d="m181.5 504.5h-84c-11.05 0-20-8.95-20-20v-12c0-22.28 9.11-42.44 23.81-56.95z" fill="#c3aff0"/><path d="m434.5 472.5v12c0 11.05-8.95 20-20 20h-30c11.05 0 20-8.95 20-20v-12c0-14.11-3.66-27.38-10.08-38.89l16.27-18.05c14.7 14.5 23.81 34.66 23.81 56.94z" fill="#a69ded"/></g><g><path d="m287.754 279.621c-18.781 15.805-44.887 15.813-63.482.022-3.156-2.681-7.89-2.295-10.571.862s-2.295 7.89.862 10.572c12.147 10.317 26.74 15.474 41.362 15.474 14.607 0 29.245-5.151 41.487-15.452 3.169-2.667 3.576-7.398.91-10.567-2.668-3.171-7.397-3.579-10.568-.911z"/><path d="m496.314 129.008c9.382-3.015 15.686-11.661 15.686-21.515 0-9.086-5.404-17.251-13.768-20.801l-176.577-74.963c-18.331-7.783-37.723-11.729-57.638-11.729h-16.033c-19.915 0-39.308 3.946-57.639 11.729l-92.1 39.099c-3.813 1.619-5.592 6.022-3.973 9.834 1.618 3.813 6.024 5.59 9.834 3.973l92.1-39.099c16.468-6.991 33.888-10.536 51.777-10.536h16.033c17.89 0 35.31 3.545 51.777 10.536l176.577 74.963c2.813 1.193 4.629 3.938 4.629 6.994 0 3.313-2.119 6.221-5.273 7.234l-68.544 22.022c-1.999-3.497-5.175-6.3-9.098-7.76-52.42-19.517-105.607-29.412-158.084-29.412s-105.664 9.896-158.085 29.412c-3.955 1.472-7.149 4.31-9.145 7.847l-68.504-22.098c-3.149-1.016-5.266-3.922-5.266-7.245 0-3.055 1.816-5.8 4.629-6.994l52.217-22.168c3.813-1.619 5.592-6.022 3.973-9.834-1.617-3.813-6.022-5.59-9.834-3.973l-52.217 22.167c-8.364 3.55-13.768 11.715-13.768 20.815 0 9.842 6.293 18.485 15.66 21.506l70.84 22.852v11.636c0 6.893 5.607 12.5 12.5 12.5h2v21.35c-10.238 6.815-17 18.456-17 31.65s6.762 24.834 17 31.65v34.287c0 31.386 12.222 60.893 34.414 83.085l8.101 8.101c-41.623 6.714-73.515 42.889-73.515 86.377v12c0 15.164 12.337 27.5 27.5 27.5h262.5c4.143 0 7.5-3.358 7.5-7.5s-3.357-7.5-7.5-7.5h-12.64l63.333-70.247c10.186 12.487 16.307 28.414 16.307 45.747v12c0 6.893-5.607 12.5-12.5 12.5h-19.5c-4.143 0-7.5 3.358-7.5 7.5s3.357 7.5 7.5 7.5h19.5c15.163 0 27.5-12.336 27.5-27.5v-12c0-43.489-31.892-79.663-73.516-86.378l8.1-8.101c22.193-22.191 34.416-51.698 34.416-83.084v-33.771c0-.169-.014-.334-.025-.5 10.251-6.813 17.025-18.461 17.025-31.666 0-13.194-6.762-24.835-17-31.65v-21.35h2c6.893 0 12.5-5.607 12.5-12.5v-11.741l40-12.851v53.041c-12.925 3.339-22.5 15.098-22.5 29.051 0 13.35 10.513 46 30 46s30-32.65 30-46c0-13.953-9.575-25.712-22.5-29.051v-57.861zm-8.314 91.992c0 4.503-1.987 13.001-5.786 20.532-3.874 7.68-7.633 10.468-9.214 10.468s-5.34-2.788-9.214-10.468c-3.799-7.531-5.786-16.029-5.786-20.532 0-8.271 6.729-15 15-15s15 6.729 15 15zm-386.5-75.597c0-1.042.663-1.99 1.649-2.357 101.424-37.761 204.277-37.761 305.701 0 .986.367 1.649 1.314 1.649 2.357v15.597h-106.476c-8.482 0-16.803 2.918-23.427 8.217l-19.912 15.93c-2.757 2.207-6.61 2.207-9.369 0l-19.912-15.93c-6.624-5.299-14.944-8.217-23.427-8.217h-106.476zm262 60.597h2.5v34c0 60.654-49.346 110-110 110s-110-49.346-110-110v-34h2.5c15.163 0 27.5-12.336 27.5-27.5v-2.5h31.977c5.09 0 10.082 1.751 14.056 4.93l19.912 15.929c4.139 3.312 9.097 4.967 14.056 4.967 4.958 0 9.918-1.656 14.056-4.966l19.912-15.93c3.974-3.179 8.966-4.93 14.056-4.93h31.975v2.5c0 15.164 12.337 27.5 27.5 27.5zm-164.361 194 36.336 40.75c5.212 5.846 12.693 9.198 20.525 9.198s15.313-3.353 20.525-9.198l36.335-40.75h21.396l-46.833 51.429c-8.154 8.954-19.313 13.885-31.424 13.885s-23.27-4.931-31.424-13.885l-46.832-51.429zm96.729-3.481-30.538 34.249c-2.404 2.696-5.718 4.181-9.33 4.181s-6.926-1.485-9.33-4.181l-30.538-34.248c2.378-2.277 3.868-5.474 3.868-9.019v-27.792c11.406 3.436 23.489 5.292 36 5.292s24.594-1.856 36-5.292v27.791c0 3.545 1.49 6.742 3.868 9.019zm-179.868-220.519h45v2.5c0 6.893-5.607 12.5-12.5 12.5h-26.5c-2.042 0-4.045.167-6 .478zm6 30h9v15.5h-9.5c-4.143 0-7.5 3.358-7.5 7.5s3.357 7.5 7.5 7.5h9.5v3.5c0 4.048.201 8.049.579 12h-9.579c-12.683 0-23-10.318-23-23s10.317-23 23-23zm-6 88.937v-28.415c1.955.312 3.958.478 6 .478h11.946c8.61 38.949 35.436 71.132 71.054 87.114v30.886h-41.394l-17.585-17.585c-19.359-19.359-30.021-45.1-30.021-72.478zm-31 189.563v-12c0-17.333 6.121-33.26 16.307-45.747l63.333 70.247h-67.14c-6.893 0-12.5-5.607-12.5-12.5zm99.836 12.5-72.889-80.846c12.448-10.083 28.282-16.143 45.511-16.153l56.029 61.528c10.871 11.938 26.367 18.786 42.514 18.786s31.643-6.847 42.514-18.786l56.029-61.528c17.228.01 33.063 6.069 45.511 16.153l-72.891 80.846zm211.164-202.063c0 27.379-10.662 53.119-30.022 72.479l-17.585 17.584h-41.393v-30.886c35.619-15.982 62.444-48.164 71.054-87.114h11.946c2.042 0 4.045-.167 6-.478zm-6-42.937h-9.579c.378-3.951.579-7.952.579-12v-3.5h9.5c4.143 0 7.5-3.358 7.5-7.5s-3.357-7.5-7.5-7.5h-9.5v-15.5h9c12.683 0 23 10.318 23 23s-10.317 23-23 23zm6-60.522c-1.955-.312-3.958-.478-6-.478h-26.5c-6.893 0-12.5-5.607-12.5-12.5v-2.5h45z"/><path d="m296.5 207c-13.675 0-25.204 9.355-28.531 22h-23.938c-3.327-12.645-14.855-22-28.531-22h-20c-16.267 0-29.5 13.234-29.5 29.5s13.233 29.5 29.5 29.5h20c13.675 0 25.204-9.355 28.531-22h23.938c3.327 12.645 14.855 22 28.531 22h20c16.267 0 29.5-13.234 29.5-29.5s-13.233-29.5-29.5-29.5zm-81 44h-20c-7.995 0-14.5-6.505-14.5-14.5s6.505-14.5 14.5-14.5h20c7.995 0 14.5 6.505 14.5 14.5s-6.505 14.5-14.5 14.5zm115.5-14.5c0 7.995-6.505 14.5-14.5 14.5h-20c-7.995 0-14.5-6.505-14.5-14.5s6.505-14.5 14.5-14.5h20c7.995 0 14.5 6.505 14.5 14.5z"/></g></g></svg>