<svg id="flat" height="512" viewBox="0 0 512 512" width="512" xmlns="http://www.w3.org/2000/svg"><path d="m24 104h464v288h-464z" fill="#2e4859"/><path d="m264 128a135.765 135.765 0 0 1 192 0v232h-400v-232a135.765 135.765 0 0 1 192 0 11.314 11.314 0 0 0 16 0z" fill="#ffedd4"/><path d="m264 340.686a11.314 11.314 0 0 1 -16 0 135.765 135.765 0 0 0 -192 0v19.314h400v-19.314a135.765 135.765 0 0 0 -192 0z" fill="#f9d59b"/><path d="m219.884 170.061-15.946-9.568a25.983 25.983 0 0 0 -25.106-.965 42.306 42.306 0 0 1 -37.663 0 25.985 25.985 0 0 0 -25.107.964l-15.946 9.569-8.232-13.721 15.945-9.568a41.909 41.909 0 0 1 40.5-1.554 26.228 26.228 0 0 0 23.351 0 41.9 41.9 0 0 1 40.5 1.555l15.945 9.567z" fill="#e2a23b"/><path d="m219.884 213.288-15.946-9.567a25.984 25.984 0 0 0 -25.108-.965 42.308 42.308 0 0 1 -37.661 0 25.977 25.977 0 0 0 -25.107.965l-15.946 9.567-8.232-13.721 15.945-9.567a41.915 41.915 0 0 1 40.5-1.555 26.222 26.222 0 0 0 23.351 0 41.917 41.917 0 0 1 40.5 1.555l15.945 9.567z" fill="#e2a23b"/><path d="m401.373 72a22.627 22.627 0 0 0 -32 0l-120 120-16 48 48-16 120-120a22.628 22.628 0 0 0 0-32z" fill="#ba763e"/><path d="m401.373 72a22.628 22.628 0 0 1 0 32l-120 120-32-32 120-120a22.627 22.627 0 0 1 32 0z" fill="#6f8b7b"/><path d="m251.49 151.858h147.078v23.598h-147.078z" fill="#516b5b" transform="matrix(.707 -.707 .707 .707 -20.524 277.764)"/><path d="m233.373 240 48-16-16.687-16.686z" fill="#a5662d"/><path d="m200 240h16v16h-16z" fill="#e2a23b"/><path d="m401.373 72a22.627 22.627 0 0 0 -32 0l-4.686 4.686 32 32 4.686-4.686a22.628 22.628 0 0 0 0-32z" fill="#e54a85"/><path d="m401.373 72a22.534 22.534 0 0 0 -7.748-5.062 22.622 22.622 0 0 1 -4.252 26.062l-4.186 4.186 11.5 11.5 4.686-4.686a22.628 22.628 0 0 0 0-32z" fill="#d32668"/><path d="m367.029 75.716h16v45.255h-16z" fill="#d1d8db" transform="matrix(.707 -.707 .707 .707 40.305 293.99)"/><path d="m368.686 103.314 16.687 16.686 11.314-11.314-16.85-16.849z" fill="#b9bec1"/></svg>